<svg width="158" height="143" viewBox="0 0 158 143" fill="none" xmlns="http://www.w3.org/2000/svg">
<path id="Line 2" d="M125.172 141.828C126.734 143.391 129.266 143.391 130.828 141.828L156.284 116.373C157.846 114.81 157.846 112.278 156.284 110.716C154.722 109.154 152.19 109.154 150.627 110.716L128 133.343L105.373 110.716C103.81 109.154 101.278 109.154 99.7157 110.716C98.1536 112.278 98.1536 114.81 99.7157 116.373L125.172 141.828ZM0 8H113V0H0V8ZM124 19V139H132V19H124ZM113 8C119.075 8 124 12.9249 124 19H132C132 8.50659 123.493 0 113 0V8Z" fill="white"/>
</svg>
