<svg width="910" height="146" viewBox="0 0 910 146" fill="none" xmlns="http://www.w3.org/2000/svg">
<path d="M27.1716 144.828C28.7337 146.391 31.2663 146.391 32.8284 144.828L58.2843 119.373C59.8464 117.81 59.8464 115.278 58.2843 113.716C56.7222 112.154 54.1895 112.154 52.6274 113.716L30 136.343L7.37258 113.716C5.81049 112.154 3.27783 112.154 1.71573 113.716C0.153631 115.278 0.153631 117.81 1.71573 119.373L27.1716 144.828ZM910 0H70V8H910V0ZM26 44V142H34V44H26ZM70 0C45.6995 0 26 19.6995 26 44H34C34 24.1178 50.1178 8 70 8V0Z" fill="white"/>
</svg>
